Coordinates
version=1
nRows=12
nColumns=24
inDegrees=yes

Units are S.I. units (second, meters, Newtons, ...)
Angles are in degrees.

endheader
time	pelvis_tilt	pelvis_list	pelvis_rotation	pelvis_tx	pelvis_ty	pelvis_tz	hip_flexion_r	hip_adduction_r	hip_rotation_r	knee_angle_r	ankle_angle_r	subtalar_angle_r	mtp_angle_r	hip_flexion_l	hip_adduction_l	hip_rotation_l	knee_angle_l	ankle_angle_l	subtalar_angle_l	mtp_angle_l	lumbar_extension	lumbar_bending	lumbar_rotation
      0.70400000	     -0.52846180	      1.13375245	     10.71862063	     -0.07051122	      0.99491571	      0.27098718	     26.15883192	     -2.29696448	     -8.74987058	      1.79316398	      8.91089625	     -5.47742030	      4.05406698	    -16.13048914	      3.64578057	     13.90336306	    -13.86656701	     15.53814259	     -6.61460936	      0.89448952	     -8.44617690	     -2.04719498	     -9.10495471
      0.70816667	     -0.54531571	      1.01988751	     10.82564321	     -0.06466299	      0.99425452	      0.27104107	     26.23478376	     -2.20216505	     -8.58365899	      1.16226955	      8.97366123	     -5.84797789	      4.06904632	    -16.31894617	      3.43130263	     13.84184602	    -14.07804185	     15.41521134	     -6.45445825	      0.91089756	     -8.30586234	     -1.86592861	     -9.18664933
      0.71233333	     -0.59232688	      0.89573180	     10.93616831	     -0.05877354	      0.99357180	      0.27112851	     26.31277451	     -2.09040663	     -8.32538901	      0.59377107	      8.80158212	     -6.52967311	      4.11028745	    -16.45983660	      3.20821013	     13.77023691	    -14.31946760	     15.31268717	     -6.23966495	      0.97330013	     -8.15616796	     -1.70738651	     -9.31549213
      0.71650000	     -0.59841848	      0.76989887	     11.05035028	     -0.05285009	      0.99297889	      0.27120725	     26.33652129	     -1.96812284	     -8.11554197	      0.03620905	      8.59111023	     -7.21003504	      4.18027504	    -16.64246506	      2.97523465	     13.71413291	    -14.56040540	     15.16429145	     -6.08620211	      1.07610343	     -8.05579811	     -1.53964359	     -9.38895656
      0.72066667	     -0.59922671	      0.63240673	     11.15497057	     -0.04686180	      0.99241036	      0.27131422	     26.34499539	     -1.82224054	     -7.91097646	     -0.50418713	      8.31618885	     -7.92058949	      4.27598344	    -16.82815532	      2.72982878	     13.64572596	    -14.80390626	     14.98564930	     -5.93560428	      1.21610105	     -7.93816179	     -1.35020129	     -9.46604002
      0.72483333	     -0.60619579	      0.48735049	     11.25788217	     -0.04082434	      0.99186420	      0.27143771	     26.34921611	     -1.66284922	     -7.72068740	     -1.02097642	      7.96277422	     -8.67689699	      4.39829586	    -16.99837815	      2.47729393	     13.57101535	    -15.06109022	     14.78267377	     -5.78639562	      1.39592061	     -7.80706697	     -1.15662048	     -9.53655370
      0.72900000	     -0.60344380	      0.33537550	     11.35628905	     -0.03474622	      0.99135996	      0.27157324	     26.33342001	     -1.48801778	     -7.54736295	     -1.51417994	      7.52306425	     -9.46685262	      4.54310522	    -17.16959203	      2.21605001	     13.48114650	    -15.33154565	     14.55720278	     -5.63821942	      1.61014140	     -7.67799367	     -0.94844155	     -9.60412676
      0.73316667	     -0.60727673	      0.17428133	     11.44919637	     -0.02862141	      0.99087547	      0.27173667	     26.31891440	     -1.29690334	     -7.39059700	     -1.98993788	      7.01607606	    -10.27158241	      4.70333476	    -17.32263736	      1.94659665	     13.37866325	    -15.61948534	     14.30733597	     -5.48813632	      1.85247524	     -7.53511363	     -0.73589959	     -9.65997376
      0.73733333	     -0.59361100	      0.01273923	     11.53086934	     -0.02244517	      0.99045238	      0.27193480	     26.27244877	     -1.09017162	     -7.21952519	     -2.43555953	      6.45439851	    -11.11630367	      4.97735602	    -17.49184325	      1.67163101	     13.25011344	    -15.90236535	     13.97234418	     -5.29793998	      2.26541076	     -7.40245738	     -0.52995774	     -9.70447269
      0.74150000	     -0.59319565	     -0.17467468	     11.62114792	     -0.01625277	      0.99003649	      0.27210962	     26.24256606	     -0.86384106	     -7.12578113	     -2.87000211	      5.78043603	    -11.93220434	      5.16999293	    -17.61822415	      1.37776204	     13.13453934	    -16.24124766	     13.71484732	     -5.18048690	      2.57385194	     -7.25840047	     -0.27794434	     -9.75892160
      0.74566667	     -0.58024343	     -0.36381470	     11.69550693	     -0.01001756	      0.98967748	      0.27232906	     26.19450763	     -0.62101395	     -7.02702338	     -3.28922157	      5.07676673	    -12.73579659	      5.37142738	    -17.75280015	      1.07956167	     12.98491660	    -16.57892844	     13.37566103	     -5.02864086	      2.90335031	     -7.11803692	     -0.02829488	     -9.78411945
      0.74983333	     -0.53430952	     -0.56931851	     11.75925731	     -0.00373384	      0.98940056	      0.27256834	     26.10975484	     -0.35110730	     -6.97321306	     -3.69612457	      4.33168026	    -13.46743936	      7.32775459	    -17.90545192	      0.75110698	     12.75747404	    -16.92776508	     12.93920591	     -4.78291141	      6.10047929	     -7.01054711	      0.25163624	     -9.68367773
